# xmcd
#
# Track frame offsets:
#	150
#	11571
#	33195
#	51204
#	68631
#	83579
#	111603
#	130253
#	151620
#	170349
#	191343
#
# Disc length: 2726 seconds
#
# Revision: 1
# Processed by: cddbd v1.5.2PL0 Copyright (c) Steve Scherf et al.
# Submitted via: audiograbber 1.83.01
#
DISCID=800aa40b
DTITLE=Essentials for Living - Hearts Together CD1
DYEAR=1900
DGENRE=Worship
TTITLE0=You Cannot Lose My Love
TTITLE1=Your Love
TTITLE2=Treat Her Right
TTITLE3=Give Me Forever I Do
TTITLE4=Gymnopedie No. 1
TTITLE5=You Are
TTITLE6=Let Us Come To Him Together
TTITLE7=Cavatina
TTITLE8=Father We Commit To You
TTITLE9=My Beautiful One
TTITLE10=Falling
EXTD=
EXTT0=
EXTT1=
EXTT2=
EXTT3=
EXTT4=
EXTT5=
EXTT6=
EXTT7=
EXTT8=
EXTT9=
EXTT10=
PLAYORDER=
